PathFileType	4	(X/Y/Z)	D:\TRACE\spotREDO_2-26-24\spot_justArm_Motion_3_1-v60.trc
DataRate	CameraRate	NumFrames	NumMarkers	Units	OrigDataRate	OrigDataStartFrame	OrigNumFrames
100.00	100.00	      24	9	mm	100.00	5251	      7000
Frame#	Time	front left toe			Front right toe			aft left toe			aft right toe			Arm			FL body			FR body			AL Body			AR Body			
		X1	Y1	Z1	X2	Y2	Z2	X3	Y3	Z3	X4	Y4	Z4	X5	Y5	Z5	X6	Y6	Z6	X7	Y7	Z7	X8	Y8	Z8	X9	Y9	Z9	

5251	52.500	-228.27875	12.60722	-175.03972	194.30757	12.72566	-174.33980	-207.51910	38.27462	455.67657	206.84349	39.94447	417.61987	-51.92355	629.22778	-836.11029	-90.33704	542.69678	-227.03889	65.08544	547.88928	-234.48929	-61.03636	574.84692	655.23248	86.94041	575.56854	651.12524	
5252	52.510	-228.15904	12.47704	-175.09715	194.45619	12.43017	-174.46770	-207.24612	38.68649	455.31870	206.89407	40.07785	417.43890	-51.75776	629.51971	-836.48303	-90.19501	542.67023	-227.35519	65.40157	547.73798	-234.70491	-60.82769	574.98010	655.06079	87.31773	575.71893	651.07684	
5253	52.520	-227.83937	12.20950	-175.25203	194.79225	12.21471	-174.44562	-207.00133	38.93499	455.20734	207.20947	40.31113	417.34323	-51.48397	629.53540	-836.61853	-90.12182	542.56030	-228.02206	65.78347	547.57727	-234.84587	-60.73491	575.01776	654.91699	87.60414	575.82849	650.97534	
5254	52.530	-227.59297	12.09345	-175.38043	195.18492	12.06407	-174.41035	-206.46080	39.14737	455.23651	207.56470	40.61144	417.32257	-51.10242	629.67902	-836.79407	-89.44918	542.00989	-227.89220	66.07716	547.41467	-235.03619	-60.50595	575.15167	654.68762	88.07738	576.11102	650.72406	
5255	52.540	-227.14940	11.87679	-175.63557	195.43558	11.98865	-174.56854	-206.20587	39.45701	455.07407	207.51007	40.78075	417.18207	-50.86163	629.78607	-837.00366	-89.24511	541.99707	-228.05338	66.37256	547.24255	-235.15948	-59.98781	575.39819	654.39105	88.56567	576.34662	650.55804	
5256	52.550	-226.88274	11.79879	-175.63322	196.01500	12.19397	-174.55336	-205.97971	39.86000	454.80634	207.86955	41.08411	417.09619	-50.57087	629.79974	-837.22339	-88.94162	542.07721	-228.11967	66.71006	547.21667	-235.33029	-59.64319	575.59564	654.13477	88.77145	576.48132	650.34442	
5257	52.560	-226.65764	11.67577	-175.63951	196.50177	12.13458	-174.80302	-205.76997	40.12114	454.72260	208.61607	41.70870	417.04694	-48.67630	629.97876	-836.31818	-88.64867	542.02948	-228.25972	66.99303	547.19513	-235.49159	-59.06614	575.93970	654.02124	89.02242	576.70325	650.05328	
5258	52.570	-226.37549	11.55440	-175.75206	196.80017	12.08131	-174.93558	-205.36159	40.39613	454.71985	209.13898	42.19497	417.02652	-48.35348	629.64948	-836.46924	-88.32750	541.97009	-228.39272	67.34312	547.09369	-235.70044	-58.81239	576.25507	653.88086	89.39201	576.92383	649.80707	
5259	52.580	-225.92804	11.34892	-175.75706	197.05464	11.75146	-175.11710	-205.09106	40.89103	454.60040	209.62120	42.47637	416.98438	-49.71250	628.77502	-837.68787	-88.06983	541.87817	-228.51967	67.66485	546.98077	-235.86435	-58.47498	576.59094	653.74060	89.77603	577.31067	649.61017	
5260	52.590	-225.55269	11.42183	-175.64360	197.24431	11.51925	-175.22357	-204.77603	41.36589	454.47913	209.71916	42.46481	416.71603	-49.45864	628.13275	-837.77869	-87.75043	541.76923	-228.70416	68.10703	546.87018	-236.05551	-58.18888	576.87134	653.66907	90.13624	577.52765	649.53406	
5261	52.600	-225.05872	11.14809	-175.92505	197.53317	11.32316	-175.26636	-204.38594	41.54082	454.44934	209.87964	42.61882	416.37704	-49.19207	627.73132	-837.96405	-87.21829	541.64050	-228.88744	68.37143	546.83221	-236.18567	-57.78425	577.11377	653.48877	90.51576	577.79657	649.38824	
5262	52.610	-224.75496	11.07301	-176.06662	198.06059	11.21527	-175.26765	-203.95648	41.71776	454.30215	210.21712	42.90854	416.21432	-49.02589	627.50922	-838.06482	-86.86694	541.40857	-229.05598	68.69695	546.77966	-236.35524	-57.46577	577.48926	653.17206	90.98750	578.20264	649.22772	
5263	52.620	-224.32135	10.73661	-176.12572	198.35141	10.97404	-175.33020	-203.63066	42.00085	454.16287	210.29805	42.96648	416.07361	-48.71401	627.24280	-838.31110	-86.45139	541.12280	-229.20773	69.09737	546.50842	-236.57274	-57.39140	577.71143	652.88507	91.10524	578.51569	649.01630	
5264	52.630	-224.14420	10.55415	-176.10733	198.48360	10.85289	-175.39217	-203.54056	42.36313	453.93997	210.37881	43.01131	416.02722	-47.01765	627.28375	-837.37396	-86.11407	540.89734	-229.45290	69.46136	546.14221	-236.89893	-56.84383	578.02673	652.73407	91.37154	578.84485	648.54150	
5265	52.640	-223.92310	10.50683	-176.21132	198.64931	10.73107	-175.52629	-203.18462	42.47498	453.91660	210.94435	43.41362	416.03497	-47.91125	626.65295	-838.71973	-85.86914	540.68561	-229.74849	69.82227	545.83038	-237.08704	-56.39695	578.54016	652.38092	89.18853	580.31561	648.02374	
5266	52.650	-223.59094	10.36173	-176.36346	199.24661	11.08786	-175.31099	-202.74573	42.79116	453.84073	211.62920	43.94599	415.99167	-47.46392	626.47418	-838.81061	-85.86324	540.80084	-230.56187	70.17836	545.62909	-237.25681	-55.89775	578.86029	652.30621	92.19394	579.41339	648.16541	
5267	52.660	-223.08891	10.31156	-176.55040	199.65614	10.41245	-176.05745	-202.37056	43.24249	453.54617	212.33817	44.42376	415.94882	-47.00277	626.56787	-838.96710	-84.93372	540.25494	-229.95790	70.66817	545.47943	-237.38908	-55.30209	579.05725	652.24414	92.75875	579.72449	648.07037	
5268	52.670	-222.51353	10.27390	-176.77664	200.02756	10.38249	-176.07492	-202.00854	43.66761	453.41525	212.53586	44.58390	415.83197	-46.82947	626.75763	-839.13287	-84.64677	540.16467	-230.02570	71.03425	545.32037	-237.47910	-55.14275	579.20026	651.90900	93.14977	580.04834	647.85352	
5269	52.680	-222.31622	10.29305	-176.85365	200.43459	10.33508	-176.09258	-201.78201	43.94366	453.32571	212.72450	44.67585	415.72598	-46.33742	626.88794	-839.36810	-84.33043	540.03351	-230.18600	71.42688	545.19897	-237.55913	-54.93118	579.41541	651.74115	93.46008	580.30835	647.78522	
5270	52.690	-221.75758	9.97230	-176.95279	200.85255	10.39857	-176.08438	-201.39891	44.14798	453.26834	213.07106	44.96029	415.63873	-46.15517	627.05151	-839.16760	-83.78709	539.89154	-230.39729	71.66130	545.26886	-238.12390	-54.46142	579.76556	651.54260	93.79932	580.58929	647.69922	
5271	52.700	-221.45135	9.86476	-177.06932	201.29953	10.26803	-176.12184	-200.89148	44.22126	453.22549	213.42128	45.15427	415.57455	-44.07396	627.52246	-837.79150	-83.33093	539.70209	-230.57643	72.33847	544.90863	-238.06877	-54.17572	580.05688	651.39209	93.95740	580.87354	647.39838	
5272	52.710	-221.27158	9.79625	-177.19617	201.64548	10.09482	-176.15981	-200.49281	44.34722	453.11246	213.72705	45.30737	415.52658	-45.10544	627.60236	-839.27106	-82.79435	539.53949	-230.79774	72.83392	544.83112	-238.21027	-53.75633	580.37811	651.23999	94.55933	581.17944	647.15265	
5273	52.720	-220.99213	9.81289	-177.29303	202.06346	9.98875	-176.10701	-200.16920	44.53943	452.99857	214.43315	45.57120	415.53357	-44.99093	627.82629	-839.59814	-82.43048	539.35046	-230.96854	73.27096	544.53455	-238.21068	-52.93732	580.45593	650.77325	94.97232	581.39136	646.94830	
5274	52.730	-220.82098	9.90638	-177.23294	202.38231	9.95574	-176.13045	-199.68091	44.69476	452.98883	214.74786	45.72824	415.47055	-44.50569	627.88104	-839.78674	-82.16422	539.22607	-231.15527	73.67193	544.28571	-238.28815	-52.31374	580.80762	650.53894	95.40482	581.67401	646.76892	
